<svg xmlns="http://www.w3.org/2000/svg" viewBox="0 0 709.09 347.25"><ellipse cx="354.55" cy="187.25" rx="354.05" ry="159.5" style="fill:#fff"/><path d="M361.55,35c194.94,0,353.54,71.33,353.54,159S556.49,353,361.55,353,8,281.67,8,194,166.6,35,361.55,35m0-1C165.74,34,7,105.63,7,194S165.74,354,361.55,354s354.54-71.63,354.54-160S557.36,34,361.55,34Z" transform="translate(-7 -6.75)"/><ellipse cx="350.91" cy="178.76" rx="266.06" ry="128.48" style="fill:#bfbfbf"/><ellipse cx="350.91" cy="185.43" rx="258.79" ry="125.45" style="fill:#ccc"/><path d="M276.45,270.8c1,.68,3.45.17,4.63-1,2.05-2-.4-5.33-1.89-5.31C277.37,264.52,274.79,269.61,276.45,270.8Z" transform="translate(-7 -6.75)" style="fill:#300"/><path d="M298.33,274.81c.68.71,2.4.28,3.2-.85,1.36-1.94-.45-5.32-1.48-5.35C298.78,268.58,297.13,273.58,298.33,274.81Z" transform="translate(-7 -6.75)" style="fill:#300"/><path d="M242.4,268.7c-.18.47-.84.39-1.23-.18-.68-1-.35-3.09,0-3.2S242.71,267.88,242.4,268.7Z" transform="translate(-7 -6.75)" style="fill:#300"/><path d="M204.22,240.93c-.4.61-1.74.56-2.5-.12-1.3-1.17-.46-3.83.31-4C203,236.6,204.93,239.88,204.22,240.93Z" transform="translate(-7 -6.75)" style="fill:#300"/><path d="M218.29,277c-.4.6-1.74.55-2.5-.12-1.3-1.17-.46-3.83.31-4C217,272.62,219,275.9,218.29,277Z" transform="translate(-7 -6.75)" style="fill:#300"/><path d="M229.39,248.94c1.17-.09,2.75-2.07,2.91-3.73.28-2.85-3.73-3.83-4.85-2.86C226.07,243.53,227.35,249.1,229.39,248.94Z" transform="translate(-7 -6.75)" style="fill:#300"/><path d="M241.74,228c1,.1,2-1.33,1.91-2.71-.19-2.36-3.75-3.8-4.56-3.15C238.09,222.92,240,227.81,241.74,228Z" transform="translate(-7 -6.75)" style="fill:#300"/><path d="M289.39,241.74c.17.48-.39.84-1.06.65-1.15-.32-2.25-2.14-2-2.47S289.1,240.91,289.39,241.74Z" transform="translate(-7 -6.75)" style="fill:#300"/><path d="M257.89,239.43c0,.61-1.06,1.47-1.92,1.59-1.48.2-2-1.86-1.51-2.46S258,238.37,257.89,239.43Z" transform="translate(-7 -6.75)" style="fill:#300"/><path d="M319.72,254c.08.72-1,1.54-2,1.51-1.75-.06-2.81-2.64-2.33-3.27S319.59,252.71,319.72,254Z" transform="translate(-7 -6.75)" style="fill:#300"/><path d="M359,207.24c-1.39-.5-3.29,1.21-3.5,3.25-.37,3.52,4.37,6.9,5.72,6.26C362.9,216,361.45,208.12,359,207.24Z" transform="translate(-7 -6.75)" style="fill:#300"/><path d="M339.31,236.21c.09.5-.52.76-1.15.47-1.08-.49-1.87-2.48-1.61-2.76S339.16,235.34,339.31,236.21Z" transform="translate(-7 -6.75)" style="fill:#300"/><path d="M323.05,224.85c1-.68,1.31-3.19.6-4.7-1.21-2.6-5.16-1.39-5.64,0C317.43,221.89,321.37,226,323.05,224.85Z" transform="translate(-7 -6.75)" style="fill:#300"/><path d="M293.24,200.85c.7-1,.1-3.68-1.18-4.91-2.2-2.13-5.68.57-5.62,2.15C286.52,200,292,202.66,293.24,200.85Z" transform="translate(-7 -6.75)" style="fill:#300"/><path d="M270.46,206c.09-1.05-1.47-2.13-2.93-2-2.52.27-4,4.11-3.25,5C265.15,210.06,270.32,207.86,270.46,206Z" transform="translate(-7 -6.75)" style="fill:#300"/><path d="M288.25,214.49c.65,0,1.6,1.1,1.75,2,.25,1.58-1.93,2.19-2.59,1.68C286.6,217.55,287.12,214.45,288.25,214.49Z" transform="translate(-7 -6.75)" style="fill:#300"/><path d="M313.06,183.22c.09-1.05-1.47-2.13-2.93-2-2.52.27-4,4.11-3.25,5C307.75,187.25,312.92,185.05,313.06,183.22Z" transform="translate(-7 -6.75)" style="fill:#300"/><path d="M272.23,191.86c.17.48-.39.84-1.06.65-1.15-.32-2.25-2.14-2-2.47S271.94,191,272.23,191.86Z" transform="translate(-7 -6.75)" style="fill:#300"/><path d="M215,218.47c.19,1.16,2.31,2.56,4,2.58,2.87,0,3.48-4.06,2.42-5.1C220.13,214.69,214.7,216.46,215,218.47Z" transform="translate(-7 -6.75)" style="fill:#300"/><path d="M238.77,177.66c.62.76,2.37.49,3.26-.56,1.53-1.81,0-5.35-1-5.47C239.77,171.49,237.68,176.32,238.77,177.66Z" transform="translate(-7 -6.75)" style="fill:#300"/><path d="M242.09,197.17a2.47,2.47,0,0,1-2.48-.24c-1.19-.9-.11-2.73.67-2.81C241.24,194,242.89,196.47,242.09,197.17Z" transform="translate(-7 -6.75)" style="fill:#300"/><path d="M360.78,200.31c1.17-.09,2.76-2.07,2.92-3.73.28-2.85-3.73-3.83-4.86-2.86C357.46,194.91,358.75,200.47,360.78,200.31Z" transform="translate(-7 -6.75)" style="fill:#300"/><path d="M340.14,211.36c1,.1,2-1.33,1.91-2.71-.2-2.36-3.76-3.79-4.57-3.15C336.49,206.29,338.43,211.18,340.14,211.36Z" transform="translate(-7 -6.75)" style="fill:#300"/><path d="M355.28,229.8c0,.61-1.06,1.47-1.92,1.59-1.48.2-2-1.86-1.51-2.46S355.35,228.74,355.28,229.8Z" transform="translate(-7 -6.75)" style="fill:#300"/><path d="M415.44,216.22c1-.67,1.31-3.19.6-4.7-1.21-2.59-5.16-1.39-5.63,0C409.83,213.26,413.77,217.39,415.44,216.22Z" transform="translate(-7 -6.75)" style="fill:#300"/><path d="M385.65,204.87c.65,0,1.59,1.09,1.74,2,.26,1.57-1.93,2.18-2.58,1.67C384,207.92,384.51,204.82,385.65,204.87Z" transform="translate(-7 -6.75)" style="fill:#300"/><path d="M377.48,194.54a2.44,2.44,0,0,1-2.48-.24c-1.19-.9-.1-2.73.68-2.8C376.63,191.4,378.28,193.84,377.48,194.54Z" transform="translate(-7 -6.75)" style="fill:#300"/><path d="M377.44,227.56c1,0,1.9-1.51,1.66-2.87-.4-2.33-4.08-3.45-4.83-2.73C373.35,222.83,375.72,227.53,377.44,227.56Z" transform="translate(-7 -6.75)" style="fill:#300"/><path d="M310.4,258c.76-.89.48-3.41-.58-4.7-1.82-2.21-5.34-.07-5.45,1.41C304.23,256.54,309.07,259.56,310.4,258Z" transform="translate(-7 -6.75)" style="fill:#300"/><path d="M313.1,203.62c-.68-.8-2.54-.46-3.47.69-1.58,2,.11,5.7,1.22,5.8C312.2,210.23,314.29,205,313.1,203.62Z" transform="translate(-7 -6.75)" style="fill:#300"/><path d="M327.67,192a2.59,2.59,0,0,1,2.65.19c1.29.93.18,2.91-.64,3C328.66,195.35,326.83,192.8,327.67,192Z" transform="translate(-7 -6.75)" style="fill:#300"/><path d="M419,191.18c.07.61-.9,1.32-1.83,1.29-1.59-.05-2.56-2.26-2.12-2.79S418.89,190.1,419,191.18Z" transform="translate(-7 -6.75)" style="fill:#300"/><path d="M436.88,176c.08.42-.48.65-1.05.4-1-.42-1.71-2.12-1.47-2.36S436.74,175.26,436.88,176Z" transform="translate(-7 -6.75)" style="fill:#300"/><path d="M369,175.56a1.34,1.34,0,0,0,.47-2.06c-.95-1.14-4.07-.61-4.44,0S367.7,176.08,369,175.56Z" transform="translate(-7 -6.75)" style="fill:#300"/><path d="M382.51,169.64c.77.05,1.6-.58,1.51-1.19-.16-1-3-1.67-3.61-1.38S381.16,169.56,382.51,169.64Z" transform="translate(-7 -6.75)" style="fill:#300"/><path d="M422.66,161.8c.08.27-.73,1.19-1.53,1.72-1.37.9-2.25.35-1.89-.17S422.53,161.32,422.66,161.8Z" transform="translate(-7 -6.75)" style="fill:#300"/><path d="M446.87,134.7a2.35,2.35,0,0,1,2-.15c.54.51-1.43,2-2.15,2.13C445.88,136.87,445.78,135.31,446.87,134.7Z" transform="translate(-7 -6.75)" style="fill:#300"/><path d="M437.17,135a6.16,6.16,0,0,1-2.4,1.28c-1.3.29-.61-1.06.11-1.52C435.77,134.2,437.8,134.28,437.17,135Z" transform="translate(-7 -6.75)" style="fill:#300"/><path d="M443.32,148.56c.94-.54,1.52-1.67,1-2.1-.82-.73-4.53.86-5.1,1.57C438.55,148.9,441.68,149.5,443.32,148.56Z" transform="translate(-7 -6.75)" style="fill:#300"/><path d="M410.51,194.63c.69-.76.43-2.91-.53-4-1.66-1.9-4.88-.06-5,1.2C404.88,193.37,409.29,196,410.51,194.63Z" transform="translate(-7 -6.75)" style="fill:#300"/><path d="M350.84,166.3a6.44,6.44,0,0,0-4,.3c-1.82.86.13,2.49,1.39,2.53C349.8,169.18,352.21,166.91,350.84,166.3Z" transform="translate(-7 -6.75)" style="fill:#300"/><path d="M367.53,161.23a7.41,7.41,0,0,1,3.05.09c1.48.4.2,1.27-.74,1.31C368.67,162.69,366.58,161.57,367.53,161.23Z" transform="translate(-7 -6.75)" style="fill:#300"/><path d="M442.89,167.9c.7-1,.09-3.68-1.19-4.92-2.19-2.12-5.67.58-5.61,2.16C436.16,167.08,441.66,169.71,442.89,167.9Z" transform="translate(-7 -6.75)" style="fill:#300"/><path d="M420.11,173.08c.09-1.05-1.47-2.13-2.94-2-2.51.27-3.95,4.11-3.24,5C414.8,177.11,420,174.91,420.11,173.08Z" transform="translate(-7 -6.75)" style="fill:#300"/><path d="M437.9,181.54c.65,0,1.6,1.1,1.74,2,.26,1.57-1.93,2.19-2.58,1.68C436.25,184.59,436.76,181.49,437.9,181.54Z" transform="translate(-7 -6.75)" style="fill:#300"/><path d="M401.89,160.9c.7-1,.09-3.68-1.19-4.92-2.19-2.12-5.67.58-5.61,2.16C395.16,160.08,400.66,162.71,401.89,160.9Z" transform="translate(-7 -6.75)" style="fill:#300"/><path d="M345.34,187.44c-.92,0-2.15-1.4-2.26-2.69-.2-2.23,3-3.34,3.84-2.68C348,182.89,346.94,187.39,345.34,187.44Z" transform="translate(-7 -6.75)" style="fill:#300"/><path d="M396.9,174.54c.65,0,1.6,1.1,1.74,2,.26,1.57-1.93,2.19-2.58,1.68C395.25,177.59,395.76,174.49,396.9,174.54Z" transform="translate(-7 -6.75)" style="fill:#300"/><path d="M374.24,128.68c-1.48,0-2.72,2.21-2.25,4.21.79,3.44,6.37,5.1,7.43,4.06C380.72,135.66,376.81,128.73,374.24,128.68Z" transform="translate(-7 -6.75)" style="fill:#300"/><path d="M345.91,157c.69-.95.21-3.44-1-4.64-2-2.06-5.34.36-5.33,1.84C339.64,156,344.71,158.66,345.91,157Z" transform="translate(-7 -6.75)" style="fill:#300"/><path d="M373.64,121.56c1.08-.47,1.93-2.86,1.55-4.48-.66-2.79-4.77-2.41-5.52-1.13C368.75,117.52,371.77,122.36,373.64,121.56Z" transform="translate(-7 -6.75)" style="fill:#300"/><path d="M357.7,138.7c1-.22,1.49-1.91.93-3.17-.95-2.18-4.79-2.38-5.35-1.51C352.6,135.1,356,139.09,357.7,138.7Z" transform="translate(-7 -6.75)" style="fill:#300"/><path d="M378,151.23a2.46,2.46,0,0,1-1.3,2.13c-1.33.67-2.5-1.11-2.23-1.84C374.82,150.62,377.74,150.21,378,151.23Z" transform="translate(-7 -6.75)" style="fill:#300"/><path d="M430.5,118.86c.69-1,.21-3.44-.95-4.64-2-2.06-5.33.36-5.32,1.85C424.23,117.89,429.3,120.52,430.5,118.86Z" transform="translate(-7 -6.75)" style="fill:#300"/><path d="M398.64,117.79a2.62,2.62,0,0,1,2.3,1.34c.75,1.4-1.11,2.69-1.9,2.42C398.07,121.22,397.55,118.12,398.64,117.79Z" transform="translate(-7 -6.75)" style="fill:#300"/><path d="M387.57,110.67a2.47,2.47,0,0,1-2.43.59c-1.41-.47-1-2.55-.27-2.88C385.74,108,388.1,109.75,387.57,110.67Z" transform="translate(-7 -6.75)" style="fill:#300"/><path d="M398.24,141.92c.94-.31,1.31-2,.65-3.25-1.15-2.08-5-1.94-5.46-1C392.84,138.78,396.61,142.45,398.24,141.92Z" transform="translate(-7 -6.75)" style="fill:#300"/><path d="M512.27,164.91c.48-1.07,2.81-1.68,4.35-1.08,2.66,1,2.17,5.28.92,5.91C516,170.51,511.43,166.77,512.27,164.91Z" transform="translate(-7 -6.75)" style="fill:#300"/><path d="M339.63,124.47a2.62,2.62,0,0,1,2.57-.69c1.53.46,1.12,2.7.37,3.06C341.65,127.29,339.09,125.47,339.63,124.47Z" transform="translate(-7 -6.75)" style="fill:#300"/><path d="M450.75,122.68c.39-.48,1.57-.3,2.2.38,1.09,1.16.22,3.41-.47,3.48C451.64,126.62,450.07,123.53,450.75,122.68Z" transform="translate(-7 -6.75)" style="fill:#300"/><path d="M373.4,95.47a1.35,1.35,0,0,0-.22-2.1c-1.27-.77-4.05.74-4.2,1.45C368.79,95.68,372.32,96.39,373.4,95.47Z" transform="translate(-7 -6.75)" style="fill:#300"/><path d="M416.9,151.79c-1.27-.29-3.26.11-3.7.76-.74,1.13,3.38,2.66,4.73,2.57C419.59,155,419.09,152.29,416.9,151.79Z" transform="translate(-7 -6.75)" style="fill:#300"/><path d="M461.33,163.72c-.52-.58-1.55-.72-1.91-.22-.62.84.92,3.27,1.57,3.53S462.23,164.73,461.33,163.72Z" transform="translate(-7 -6.75)" style="fill:#300"/><path d="M427.39,140.87c.14-.24,1.36-.32,2.3-.13,1.61.33,1.84,1.35,1.22,1.46C430.14,142.34,427.15,141.3,427.39,140.87Z" transform="translate(-7 -6.75)" style="fill:#300"/><path d="M459.2,126.25c-1,0-2.37,1.76-2.46,3.22-.17,2.51,3.4,3.49,4.37,2.66C462.29,131.12,461,126.17,459.2,126.25Z" transform="translate(-7 -6.75)" style="fill:#300"/><path d="M353.2,92.61a6.49,6.49,0,0,0-3.66,1.57c-1.44,1.4.93,2.31,2.13,1.94C353.16,95.67,354.69,92.74,353.2,92.61Z" transform="translate(-7 -6.75)" style="fill:#300"/><path d="M354.86,114.39c-.86.33-2.49-.62-3-1.81-.9-2,1.73-4.13,2.77-3.78C355.9,109.23,356.36,113.83,354.86,114.39Z" transform="translate(-7 -6.75)" style="fill:#300"/><path d="M454.62,150.08a2.59,2.59,0,0,1,.19-2.65c.93-1.29,2.91-.18,3,.64C457.94,149.09,455.39,150.92,454.62,150.08Z" transform="translate(-7 -6.75)" style="fill:#300"/><path d="M315.71,167.05c.17-1,2.1-3.08,3.63-3.8,2.63-1.25,3.23,1.83,2.27,3.13C320.42,168,315.42,168.85,315.71,167.05Z" transform="translate(-7 -6.75)" style="fill:#300"/><path d="M288.33,182.17a4.06,4.06,0,0,0-1.59,2.2c-.29,1.34,1.56,1.06,2.14.42C289.61,184,289.31,181.74,288.33,182.17Z" transform="translate(-7 -6.75)" style="fill:#300"/><path d="M313.33,147.47c0-.54-.89-1-1.71-.78-1.42.34-2.14,2.42-1.72,2.8S313.29,148.42,313.33,147.47Z" transform="translate(-7 -6.75)" style="fill:#300"/><path d="M292,162.49c.06-.83,1.51-2.15,2.74-2.43,2.11-.48,2.86,2.26,2.16,3.15C296,164.31,291.88,164,292,162.49Z" transform="translate(-7 -6.75)" style="fill:#300"/><path d="M281.41,133c-1.16.19-2.56,2.31-2.58,4,0,2.87,4.06,3.48,5.1,2.42C285.19,138.06,283.42,132.63,281.41,133Z" transform="translate(-7 -6.75)" style="fill:#300"/><path d="M263.1,145.59c-1,0-1.9,1.51-1.66,2.87.4,2.33,4.08,3.45,4.83,2.73C267.19,150.32,264.82,145.62,263.1,145.59Z" transform="translate(-7 -6.75)" style="fill:#300"/><path d="M307,110.37c-.2-.46.32-.86,1-.74,1.17.21,2.43,1.94,2.25,2.28S307.33,111.18,307,110.37Z" transform="translate(-7 -6.75)" style="fill:#300"/><path d="M330.14,115.14c-.76.89-.48,3.42.58,4.7,1.82,2.22,5.35.07,5.46-1.41C336.31,116.62,331.47,113.59,330.14,115.14Z" transform="translate(-7 -6.75)" style="fill:#300"/><path d="M292.81,162.66c-.46-.22-.32-.87.28-1.21,1-.59,3.11-.07,3.19.31S293.6,163.05,292.81,162.66Z" transform="translate(-7 -6.75)" style="fill:#300"/><path d="M266.45,166c.08,1.17,2.07,2.76,3.73,2.92,2.85.28,3.83-3.73,2.86-4.86C271.85,162.69,266.29,164,266.45,166Z" transform="translate(-7 -6.75)" style="fill:#300"/><path d="M304.1,138.67c.26.42-.2.9-.89.87-1.19,0-2.67-1.59-2.54-1.95S303.63,137.92,304.1,138.67Z" transform="translate(-7 -6.75)" style="fill:#300"/><path d="M316.46,126.69a2.47,2.47,0,0,1-1.18,2.2c-1.29.75-2.56-1-2.33-1.71C313.23,126.27,316.12,125.68,316.46,126.69Z" transform="translate(-7 -6.75)" style="fill:#300"/><path d="M486.85,179.51c-.18.48-.84.39-1.23-.18-.68-1-.35-3.08,0-3.2S487.17,178.69,486.85,179.51Z" transform="translate(-7 -6.75)" style="fill:#300"/><path d="M475.68,150.75c-.41.6-1.75.56-2.51-.12-1.3-1.17-.46-3.83.31-4C474.42,146.42,476.38,149.7,475.68,150.75Z" transform="translate(-7 -6.75)" style="fill:#300"/><path d="M462.75,193.77c-.41.6-1.75.55-2.51-.13-1.3-1.16-.46-3.82.31-4C461.49,189.44,463.45,192.72,462.75,193.77Z" transform="translate(-7 -6.75)" style="fill:#300"/><path d="M500.84,158.76c1.17-.09,2.75-2.08,2.92-3.73.28-2.85-3.73-3.83-4.86-2.86C497.52,153.35,498.8,158.91,500.84,158.76Z" transform="translate(-7 -6.75)" style="fill:#300"/><path d="M513.2,137.8c1,.11,2-1.33,1.91-2.7-.2-2.36-3.76-3.8-4.57-3.15C509.54,132.74,511.49,137.62,513.2,137.8Z" transform="translate(-7 -6.75)" style="fill:#300"/><path d="M529.34,149.25c0,.61-1.06,1.47-1.92,1.59-1.48.2-2-1.86-1.51-2.46S529.41,148.19,529.34,149.25Z" transform="translate(-7 -6.75)" style="fill:#300"/><path d="M486.49,128.29c.19,1.16,2.31,2.56,4,2.57,2.86,0,3.48-4.05,2.41-5.09C491.58,124.5,486.15,126.28,486.49,128.29Z" transform="translate(-7 -6.75)" style="fill:#300"/><path d="M274,79q2,47,4,94c4.14,4.09,7.58,5,10,5,5.9,0,8.1-5.06,16-7,6.46-1.59,7.95,1.1,12,0,13.3-3.61,9.61-36,21-40,3.78-1.34,10.47,0,23,14q-4-37-8-74a77.84,77.84,0,0,0-14-4c-21.22-4-39.22,1.84-49,6l-6.12,2.45Z" transform="translate(-7 -6.75)" style="fill:#300"/><path d="M341.05,65c1.61-4.47,4.38-11,8.26-15,7.79-8.07,18.05-4.3,20,10A109.28,109.28,0,0,1,370,71c.08,7.18-.53,9.18-1,18s.08,8.59-.32,21c-.29,9.21-.55,8.57-.63,15-.13,10,.48,12.37,0,18a47.89,47.89,0,0,1-2.86,13,35.61,35.61,0,0,0-12.27-2c-20.72.38-34,19.88-37.93,17-2.27-1.65,1.73-8.36,4-18,5.09-21.63-4-27.79-4-57,0,0,2.07-29.26,11.95-32.14l.49-.14A20.32,20.32,0,0,1,341.05,65Z" transform="translate(-7 -6.75)" style="fill:#260000"/><path d="M315,17.56q-21.21,31-42.43,62C287.49,84.31,298.52,83.63,306,82c4.95-1.08,14.41-3.89,23-1,1.86.62,6.06,2.1,8,6a40,40,0,0,0,11,2c8.7.33,11.7-2.5,22-3,15.31-.75,24-16.41,36-28,27.66-26.73,43.74-29.91,42-37-2.34-9.51-32.72-9.79-55-10A418.07,418.07,0,0,0,315,17.56Z" transform="translate(-7 -6.75)" style="fill:#600"/><path d="M452,122.56l-88.36,35A83.49,83.49,0,0,1,363,132c.66-4.82,1.61-8.27,1-14-.59-5.55-2.3-10.3-4-15-3.25-9-5.71-12.2-4-15,1.19-2,3.2-1.72,6-3,7.37-3.38,6.86-11.12,12-18,6.31-8.45,12.85-4.52,27-14,8.51-5.7,8.84-8.93,16-15,7-5.94,18.34-12.72,37-15.44Q453,72.55,452,122.56Z" transform="translate(-7 -6.75)" style="fill:#300"/><path d="M551,68.56" transform="translate(-7 -6.75)"/><path d="M313.08,22.28A265.5,265.5,0,0,1,388,11c31.34-.1,68.55,5.57,68.49,10.14,0,1.72-5.29,3-9.49,3.86a279,279,0,0,0-95-5,274.35,274.35,0,0,0-43,8.74Z" transform="translate(-7 -6.75)"/><path d="M315,17.56a274.09,274.09,0,0,1,142-1L447,20a270.27,270.27,0,0,0-136,3.56Z" transform="translate(-7 -6.75)" style="fill:#300"/><path d="M457,121.56c.31-7.85.17-14.21,0-18.56-.39-9.3-1-10.17-1-18,0-7,.49-8.85,0-15-.47-5.85-1.05-5.89-1-10,.07-5.74,1.22-6.85,1-13a36.33,36.33,0,0,1,0-6c.31-2.92.85-3.71,1-6,.2-3-.56-4.64-1-7a22.74,22.74,0,0,1,1-11.44l-9,3q.5,52.5,1,105Z" transform="translate(-7 -6.75)"/><path d="M234,244" transform="translate(-7 -6.75)" style="fill:#300"/><path d="M350.86,136.77c-.82-.8-2.42-.06-2.95,1.43-.92,2.56,1.57,6.53,2.59,6.43C351.75,144.52,352.3,138.15,350.86,136.77Z" transform="translate(-7 -6.75)" style="fill:#630"/><path d="M419.06,75.39c-2.57-9-3.8-12-4.61-15.77a10.89,10.89,0,0,1-.42-3.85c.45-3.61,10.58,1.85,11.87,2.55,2.37,3.29,8.3,11.92,11,21l.21.72c2.15,8-.56,12.37-2.57,14.57A34.14,34.14,0,0,0,430,97.05s-1.12.62-5.67-5.29a10.46,10.46,0,0,1-1.4-3C421.78,85.66,421.08,82.45,419.06,75.39Z" transform="translate(-7 -6.75)" style="fill:#963"/><path d="M342.19,106.61c-.05,1.35,1.23,4,3.19,5.6s3.68,1.27,4,.22-.48-3.56-2.19-5.2a7,7,0,0,0-2.28-1.45C343.52,105.2,342.23,105.31,342.19,106.61Z" transform="translate(-7 -6.75)" style="fill:#630"/><path d="M289.88,158c-.51,1,.58,2,2.09,1.92,2.6-.17,5.59-3.68,5.24-4.49C296.78,154.45,290.78,156.33,289.88,158Z" transform="translate(-7 -6.75)" style="fill:#963"/><path d="M324,107.23a1.72,1.72,0,0,0,1.42.3l4-3.55c-.25-.63-1.28-3-2.64-3.06C324.71,100.91,322.73,106,324,107.23Z" transform="translate(-7 -6.75)" style="fill:#630"/><path d="M291,125.91c-.32,1.54,1,5.35,2.46,7.09,2.55,3,4.82-1.12,4.31-3.42C297.13,126.77,291.54,123.23,291,125.91Z" transform="translate(-7 -6.75)" style="fill:#963"/><path d="M323.23,139.48c.5,1.63,3.25,5.4,5.16,7,3.27,2.77,3-1.74,1.53-4C328.13,139.62,322.36,136.64,323.23,139.48Z" transform="translate(-7 -6.75)" style="fill:#630"/><path d="M415.54,120.82c-1.15,1.69.35,5.19,2.89,6.51,4.36,2.26,10.41-2.68,10.07-4.88C428.08,119.75,417.54,117.88,415.54,120.82Z" transform="translate(-7 -6.75)" style="fill:#963"/><path d="M379.55,100c.89,1.83,4.68,2.28,7.08.73,4.14-2.66,2.87-10.36.79-11.16C384.87,88.53,378,96.74,379.55,100Z" transform="translate(-7 -6.75)" style="fill:#963"/><path d="M380.24,137.11c.65.92,3.09,1.3,4.56.66,2.52-1.1,1.37-4.85,0-5.33C383.14,131.86,379.11,135.5,380.24,137.11Z" transform="translate(-7 -6.75)" style="fill:#963"/><path d="M274,79q2,47,4,94c2.28,2.28,5.72,4.9,10,5a13.28,13.28,0,0,0,5-1c6.87-2.25,11.78,1.41,18,2,13,1.22,17.14-12.39,36-14a42.1,42.1,0,0,1,7,0q-1-47-2-94a77.84,77.84,0,0,0-14-4c-21.22-4-39.22,1.84-49,6l-6.12,2.45Z" transform="translate(-7 -6.75)" style="fill:#300"/><path d="M391,88a75.07,75.07,0,0,0-26-15c-24.51-8.07-56.79-4.3-63,10-1.74,4-2,10-2,11-.27,7.18,1.64,9.18,3,18s-.25,8.59,1,21c.93,9.21,1.74,8.57,2,15,.4,10-1.51,12.37,0,18,.91,3.38,3.09,8.1,9,13a91.89,91.89,0,0,0,26,4c11.95.1,13.35-2.26,23-1,3.47.45,4.56.92,27,8,11,3.47,11.81,3.7,13,4,10.38,2.66,12.07,1.73,25,4,15.5,2.72,19.32,5.14,27,3a32.27,32.27,0,0,0,10-5c6.31-4.51,45-32.53,38.5-65.28-7.3-36.6-58.39-42.85-69.14-43.86l-1.56-.14C414,85.08,400,86.49,391,88Z" transform="translate(-7 -6.75)" style="fill:#260000"/><path d="M315,17.56q-21.21,31-42.43,62C287.49,84.31,298.52,83.63,306,82c4.95-1.08,14.41-3.89,23-1,1.86.62,6.06,2.1,8,6a40,40,0,0,0,11,2c8.7.33,11.7-2.5,22-3a46.68,46.68,0,0,1,14,1c9.66,2.31,9.78,6.06,17,7,9.18,1.19,14.79-4.13,18-1,2.43,2.37-.05,6.14,2,9,1.84,2.57,7.25,4.3,23.74-.65L546,65.56a244.68,244.68,0,0,0-93.1-49.9C390.17-1.9,337.39,10.76,315,17.56Z" transform="translate(-7 -6.75)" style="fill:#600"/><path d="M544,165.56l-88.36,35A83.49,83.49,0,0,1,455,175c.66-4.82,1.61-8.27,1-14-.65-6.12-2.26-7.25-4-15-2-9.08-.1-8.82-2-17-2-8.74-4.62-10.72-5-18a33.28,33.28,0,0,1,1.06-10.18L546,65.56Q545,115.56,544,165.56Z" transform="translate(-7 -6.75)" style="fill:#300"/><path d="M313.08,21.28c26.06-7.35,79.75-18.44,143.41-1.14A271.12,271.12,0,0,1,547,64.39l-9.15,3.17a260.63,260.63,0,0,0-82.39-41C390.42,7.77,335,20,309,27.74Z" transform="translate(-7 -6.75)"/><path d="M551,68.56" transform="translate(-7 -6.75)"/><path d="M315,17.56c25.57-7,78.84-17.73,142-1a270.18,270.18,0,0,1,90,43l-9,3a259.26,259.26,0,0,0-82-40c-64.56-18.26-119.59-6.32-145,1Z" transform="translate(-7 -6.75)" style="fill:#300"/><path d="M547,164.56v-105l-9,3q.5,52.5,1,105Z" transform="translate(-7 -6.75)"/><path d="M234,244" transform="translate(-7 -6.75)" style="fill:#300"/><path d="M447,138c-.26-3.89,2.68-7.33,4-7,2.22.56,2.28,12.39,0,13C449.72,144.34,447.22,141.31,447,138Z" transform="translate(-7 -6.75)" style="fill:#630"/><path d="M377.21,160.19c-4.32.1-15.94,3.4-21.63,6.2-9.79,4.82,1,6.66,7.93,5.07C372,169.51,384.74,160,377.21,160.19Z" transform="translate(-7 -6.75)" style="fill:#630"/><path d="M391,112.46c-1.48,1.26-.3,3.35,2.3,3.88,4.46.9,11.71-3.12,11.62-4.51C404.8,110.12,393.55,110.28,391,112.46Z" transform="translate(-7 -6.75)" style="fill:#630"/><path d="M451,138c.73,4-.51,5.79.91,7.14A4.2,4.2,0,0,0,455,146c6.31-.24,40.66-13.34,45-15,5.54-3.24,18.86-11.39,18.63-15.59a1.47,1.47,0,0,0,0-.33c-1.14-3.38-17.68-.39-28.58,1.92-8.42,2.19-15.13,3.9-21.55,5.47,0,0-5.31,1.34-16.45,7.53a4.44,4.44,0,0,0-2,2C449.24,133.72,450.43,134.86,451,138Z" transform="translate(-7 -6.75)" style="fill:#963"/><path d="M359.72,116.84c-2.31,3.53-3.17,8.25-.53,9.2s7.8-2.72,10.44-6c2.8-3.46,4.5-8.38,2.58-9.82-1-.77-2.77-.29-3.78,0A16.55,16.55,0,0,0,359.72,116.84Z" transform="translate(-7 -6.75)" style="fill:#630"/><path d="M403.64,164c1.55,6.27,9.17,13.84,17.72,14.39a12.68,12.68,0,0,0,13.69-12.86c-.17-6.32-6.1-14.5-13.86-16a15.77,15.77,0,0,0-9.45,1.31C406.31,153,402.14,158,403.64,164Z" transform="translate(-7 -6.75)" style="fill:#630"/><path d="M289.88,158c-.51,1,.58,2,2.09,1.92,2.6-.17,5.59-3.68,5.24-4.49C296.78,154.45,290.78,156.33,289.88,158Z" transform="translate(-7 -6.75)" style="fill:#963"/><path d="M324,107.23a1.72,1.72,0,0,0,1.42.3l4-3.55c-.25-.63-1.28-3-2.64-3.06C324.71,100.91,322.73,106,324,107.23Z" transform="translate(-7 -6.75)" style="fill:#630"/><path d="M291,125.91c-.32,1.54,1,5.35,2.46,7.09,2.55,3,4.82-1.12,4.31-3.42C297.13,126.77,291.54,123.23,291,125.91Z" transform="translate(-7 -6.75)" style="fill:#963"/><path d="M323.23,139.48c.5,1.63,3.25,5.4,5.16,7,3.27,2.77,3-1.74,1.53-4C328.13,139.62,322.36,136.64,323.23,139.48Z" transform="translate(-7 -6.75)" style="fill:#630"/><path d="M274,79q2,47,4,94c2.28,2.28,5.72,4.9,10,5a13.28,13.28,0,0,0,5-1c6.87-2.25,11.78,1.41,18,2,13,1.22,17.14-12.39,36-14a42.1,42.1,0,0,1,7,0q-1-47-2-94a77.84,77.84,0,0,0-14-4c-21.22-4-39.22,1.84-49,6l-6.12,2.45Z" transform="translate(-7 -6.75)" style="fill:#230000"/><path d="M315,117c1.45,11.79,2.38,22,3,30,.42,5.47,1.79,24.12,2,49,.05,5.34,0,9.8,0,13,13,5.9,22.56,6.06,29,5,4.81-.79,10.56-2.65,17,0,4.51,1.86,5.09,4.21,9,6s9.93,2.58,20-2c27.92-13.35,43.32-41.13,38.5-65.28-7.78-39-65.2-43.53-70.7-44A99,99,0,0,0,315,117Z" transform="translate(-7 -6.75)" style="fill:#260000"/><path d="M315,17.56q-21.21,31-42.43,62C287.49,84.31,298.52,83.63,306,82c4.95-1.08,14.41-3.89,23-1,1.86.62,6.06,2.1,8,6a11.39,11.39,0,0,1,1,5c-.42,10.71-25.12,22.46-24,25,.49,1.12,6.79-1.5,20-3,9.56-1.08,10.52-2,17-2a35,35,0,0,1,14,3,42.45,42.45,0,0,1,14.25,9.5L546,65.56a244.68,244.68,0,0,0-93.1-49.9C390.17-1.9,337.39,10.76,315,17.56Z" transform="translate(-7 -6.75)" style="fill:#600"/><path d="M544,165.56C427.49,213.65,394.2,222.25,391.8,217.39a.78.78,0,0,1-.05-.14,4.72,4.72,0,0,1,.28-2.95c.73-1.77-1.25-4.94-2-6.3a38.8,38.8,0,0,1-4-11,26,26,0,0,1-3-12c0-1.34.34-3.89,1-9,.95-7.37,1.08-6.92,1-8-.22-2.93-1.22-7-2-11a7.81,7.81,0,0,1-.19-1.82A21.67,21.67,0,0,0,383,150c-.47-5.12-2-7.58-3-11s-1.5-8.21.37-15L546,65.56Q545,115.56,544,165.56Z" transform="translate(-7 -6.75)" style="fill:#300"/><path d="M313.08,21.28c26.06-7.35,79.75-18.44,143.41-1.14A271.12,271.12,0,0,1,547,64.39l-9.15,3.17a260.63,260.63,0,0,0-82.39-41C390.42,7.77,335,20,309,27.74Z" transform="translate(-7 -6.75)"/><path d="M551,68.56" transform="translate(-7 -6.75)"/><path d="M315,17.56c25.57-7,78.84-17.73,142-1a270.18,270.18,0,0,1,90,43l-9,3a259.26,259.26,0,0,0-82-40c-64.56-18.26-119.59-6.32-145,1Z" transform="translate(-7 -6.75)" style="fill:#300"/><path d="M547,164.56v-105l-9,3q.5,52.5,1,105Z" transform="translate(-7 -6.75)"/><path d="M234,244" transform="translate(-7 -6.75)" style="fill:#300"/><path d="M370.21,170.19c-4.32.1-15.94,3.4-21.63,6.2-9.79,4.82,1,6.66,7.93,5.07C365,179.51,377.74,170,370.21,170.19Z" transform="translate(-7 -6.75)" style="fill:#630"/><path d="M379,133.46c-1.48,1.26-.3,3.35,2.3,3.88,4.46.9,11.71-3.12,11.62-4.51C392.8,131.12,381.55,131.28,379,133.46Z" transform="translate(-7 -6.75)" style="fill:#963"/><path d="M426.6,143.79c0,3.71,22.82,2.88,41.28-1.45,29.34-6.88,53.51-24,50.7-27.26C513.83,109.52,426.54,136.52,426.6,143.79Z" transform="translate(-7 -6.75)" style="fill:#963"/><path d="M348.11,125.63c-4.23-.1-8.68,1.66-8.1,4.4s6.43,5.19,10.59,5.71c4.41.55,9.48-.6,9.7-3,.11-1.29-1.22-2.51-2-3.22A16.64,16.64,0,0,0,348.11,125.63Z" transform="translate(-7 -6.75)" style="fill:#630"/><path d="M397.26,168.94c-8.06,4.52-14.47,13.15-10.29,18.17,4.38,5.28,17.94,3.55,26.35,0,8.93-3.8,17.18-11.86,14.9-17-1.23-2.79-5.11-3.82-7.36-4.42C414.54,163.94,405.06,164.55,397.26,168.94Z" transform="translate(-7 -6.75)" style="fill:#963"/><path d="M289.88,158c-.51,1,.58,2,2.09,1.92,2.6-.17,5.59-3.68,5.24-4.49C296.78,154.45,290.78,156.33,289.88,158Z" transform="translate(-7 -6.75)" style="fill:#963"/><path d="M324,107.23a1.72,1.72,0,0,0,1.42.3l4-3.55c-.25-.63-1.28-3-2.64-3.06C324.71,100.91,322.73,106,324,107.23Z" transform="translate(-7 -6.75)" style="fill:#963"/><path d="M291,125.91c-.32,1.54,1,5.35,2.46,7.09,2.55,3,4.82-1.12,4.31-3.42C297.13,126.77,291.54,123.23,291,125.91Z" transform="translate(-7 -6.75)" style="fill:#963"/><path d="M323.23,159.48c.5,1.63,3.25,5.4,5.16,7,3.27,2.77,3-1.74,1.53-4C328.13,159.62,322.36,156.64,323.23,159.48Z" transform="translate(-7 -6.75)" style="fill:#630"/><path d="M243,123q2,47,4,94c2.28,2.28,5.72,4.9,10,5a13.28,13.28,0,0,0,5-1c6.87-2.25,11.78,1.41,18,2,13,1.22,17.14-12.39,36-14a42.1,42.1,0,0,1,7,0q-1-47-2-94a77.84,77.84,0,0,0-14-4c-21.22-4-39.22,1.84-49,6l-6.12,2.45Z" transform="translate(-7 -6.75)" style="fill:#300"/><path d="M315,117c1.45,11.79,2.38,22,3,30,.42,5.47,1.79,24.12,2,49,.05,5.34,0,9.8,0,13,13,5.9,22.56,6.06,29,5,4.81-.79,10.56-2.65,17,0,4.51,1.86,5.09,4.21,9,6s9.93,2.58,20-2c27.92-13.35,43.32-41.13,38.5-65.28-7.78-39-65.2-43.53-70.7-44A99,99,0,0,0,315,117Z" transform="translate(-7 -6.75)" style="fill:#260000"/><path d="M315,17.56q-21.21,31-42.43,62l-29.46,43.07c8,4.22,13.35,4.24,16.88,3.37,1.92-.47,4.92-1.61,9-1a19.87,19.87,0,0,1,6,2c11.64,5.41,29.64-4.25,31-5,4.73-2.6,4-3.26,8-5,5.79-2.54,8.58-1.71,20-3,9.56-1.08,10.52-2,17-2a35,35,0,0,1,14,3,42.45,42.45,0,0,1,14.25,9.5L546,65.56a244.68,244.68,0,0,0-93.1-49.9C390.17-1.9,337.39,10.76,315,17.56Z" transform="translate(-7 -6.75)" style="fill:#600"/><path d="M544,165.56C427.49,213.65,394.2,222.25,391.8,217.39a.78.78,0,0,1-.05-.14,4.72,4.72,0,0,1,.28-2.95c.73-1.77-1.25-4.94-2-6.3a38.8,38.8,0,0,1-4-11,26,26,0,0,1-3-12c0-1.34.34-3.89,1-9,.95-7.37,1.08-6.92,1-8-.22-2.93-1.22-7-2-11a7.81,7.81,0,0,1-.19-1.82A21.67,21.67,0,0,0,383,150c-.47-5.12-2-7.58-3-11s-1.5-8.21.37-15L546,65.56Q545,115.56,544,165.56Z" transform="translate(-7 -6.75)" style="fill:#300"/><path d="M313.08,21.28c26.06-7.35,79.75-18.44,143.41-1.14A271.12,271.12,0,0,1,547,64.39l-9.15,3.17a260.63,260.63,0,0,0-82.39-41C390.42,7.77,335,20,309,27.74Z" transform="translate(-7 -6.75)"/><path d="M551,68.56" transform="translate(-7 -6.75)"/><path d="M315,17.56c25.57-7,78.84-17.73,142-1a270.18,270.18,0,0,1,90,43l-9,3a259.26,259.26,0,0,0-82-40c-64.56-18.26-119.59-6.32-145,1Z" transform="translate(-7 -6.75)" style="fill:#300"/><path d="M547,164.56v-105l-9,3q.5,52.5,1,105Z" transform="translate(-7 -6.75)"/><path d="M234,244" transform="translate(-7 -6.75)" style="fill:#300"/><path d="M370.21,170.19c-4.32.1-15.94,3.4-21.63,6.2-9.79,4.82,1,6.66,7.93,5.07C365,179.51,377.74,170,370.21,170.19Z" transform="translate(-7 -6.75)" style="fill:#630"/><path d="M379,133.46c-1.48,1.26-.3,3.35,2.3,3.88,4.46.9,11.71-3.12,11.62-4.51C392.8,131.12,381.55,131.28,379,133.46Z" transform="translate(-7 -6.75)" style="fill:#963"/><path d="M426.6,143.79c0,3.71,22.82,2.88,41.28-1.45,29.34-6.88,53.51-24,50.7-27.26C513.83,109.52,426.54,136.52,426.6,143.79Z" transform="translate(-7 -6.75)" style="fill:#963"/><path d="M348.11,125.63c-4.23-.1-8.68,1.66-8.1,4.4s6.43,5.19,10.59,5.71c4.41.55,9.48-.6,9.7-3,.11-1.29-1.22-2.51-2-3.22A16.64,16.64,0,0,0,348.11,125.63Z" transform="translate(-7 -6.75)" style="fill:#630"/><path d="M397.26,168.94c-8.06,4.52-14.47,13.15-10.29,18.17,4.38,5.28,17.94,3.55,26.35,0,8.93-3.8,17.18-11.86,14.9-17-1.23-2.79-5.11-3.82-7.36-4.42C414.54,163.94,405.06,164.55,397.26,168.94Z" transform="translate(-7 -6.75)" style="fill:#963"/><path d="M289.88,158c-.51,1,.58,2,2.09,1.92,2.6-.17,5.59-3.68,5.24-4.49C296.78,154.45,290.78,156.33,289.88,158Z" transform="translate(-7 -6.75)" style="fill:#963"/><path d="M273,210.23c1,.68,3.45.17,4.63-1,2.05-2-.4-5.33-1.89-5.31C273.87,204,271.29,209,273,210.23Z" transform="translate(-7 -6.75)" style="fill:#963"/><path d="M251.59,161.4c-1.48,1.25-.3,3.35,2.29,3.87,4.47.91,11.71-3.11,11.63-4.5C265.41,159.06,254.16,159.22,251.59,161.4Z" transform="translate(-7 -6.75)" style="fill:#963"/><path d="M323.23,159.48c.5,1.63,3.25,5.4,5.16,7,3.27,2.77,3-1.74,1.53-4C328.13,159.62,322.36,156.64,323.23,159.48Z" transform="translate(-7 -6.75)" style="fill:#630"/><path d="M243,123q2,47,4,94a28.21,28.21,0,0,0,10,5,44.19,44.19,0,0,0,9,2,35.34,35.34,0,0,0,15-2q-1-45-2-90a89.11,89.11,0,0,0-21-15l-6.12,2.45Z" transform="translate(-7 -6.75)" style="fill:#300"/><path d="M264,120q2,52,4,104a266.88,266.88,0,0,1,58.77,16c82.07-48.83,82.85-94.15,10.46-111.72C322.89,124.79,300.25,121.08,264,120Z" transform="translate(-7 -6.75)" style="fill:#260000"/><path d="M315,17.56,243.12,122.63c8,4.22,13.35,4.24,16.88,3.37,1.92-.47,4.92-1.61,9-1,2.79.41,3,1.19,6,2,6.95,1.89,9.88-1.17,13,1,3.28,2.28.94,6.3,4,9,3.75,3.31,9.47-.76,18,0,3.73.33,9.07,1.69,15.31,6.56l220.7-78a244.68,244.68,0,0,0-93.1-49.9C390.17-1.9,337.39,10.76,315,17.56Z" transform="translate(-7 -6.75)" style="fill:#600"/><path d="M544,165.56,327.14,239.41A194.44,194.44,0,0,1,328,217c.49-5,.78-5.83,1-10,.45-8.53-.48-10.46,0-19,.35-6.28.87-5.6,1-11,.14-5.8.54-9.31,0-14a75,75,0,0,0-2-10c-1-3.89-2-7.13-2.8-9.53L546,65.56Q545,115.56,544,165.56Z" transform="translate(-7 -6.75)" style="fill:#300"/><path d="M313.08,21.28c26.06-7.35,79.75-18.44,143.41-1.14A271.12,271.12,0,0,1,547,64.39l-9.15,3.17a260.63,260.63,0,0,0-82.39-41C390.42,7.77,335,20,309,27.74Z" transform="translate(-7 -6.75)"/><path d="M551,68.56" transform="translate(-7 -6.75)"/><path d="M315,17.56c25.57-7,78.84-17.73,142-1a270.18,270.18,0,0,1,90,43l-9,3a259.26,259.26,0,0,0-82-40c-64.56-18.26-119.59-6.32-145,1Z" transform="translate(-7 -6.75)" style="fill:#300"/><path d="M547,164.56v-105l-9,3q.5,52.5,1,105Z" transform="translate(-7 -6.75)"/><path d="M234,244" transform="translate(-7 -6.75)" style="fill:#300"/><path d="M321.09,205.05c-1.22-1.5-3.34-.36-3.91,2.22-1,4.45,2.87,11.77,4.27,11.72C323.16,218.92,323.23,207.67,321.09,205.05Z" transform="translate(-7 -6.75)" style="fill:#630"/><path d="M379,133.46c-1.48,1.26-.3,3.35,2.3,3.88,4.46.9,11.71-3.12,11.62-4.51C392.8,131.12,381.55,131.28,379,133.46Z" transform="translate(-7 -6.75)" style="fill:#963"/><path d="M426.6,143.79c0,3.71,22.82,2.88,41.28-1.45,29.34-6.88,53.51-24,50.7-27.26C513.83,109.52,426.54,136.52,426.6,143.79Z" transform="translate(-7 -6.75)" style="fill:#963"/><path d="M315.72,160.94c-3.89,1.63-8.82,8.16-9.5,15-.71,7.18,3.69,10.57,7.33,10.07,3.87-.53,9.11-5.76,10.37-12a15.39,15.39,0,0,0-.43-7.43C322.35,162.37,319.49,159.37,315.72,160.94Z" transform="translate(-7 -6.75)" style="fill:#630"/><path d="M397.26,168.94c-8.06,4.52-14.47,13.15-10.29,18.17,4.38,5.28,17.94,3.55,26.35,0,8.93-3.8,17.18-11.86,14.9-17-1.23-2.79-5.11-3.82-7.36-4.42C414.54,163.94,405.06,164.55,397.26,168.94Z" transform="translate(-7 -6.75)" style="fill:#963"/><path d="M289.88,158c-.51,1,.58,2,2.09,1.92,2.6-.17,5.59-3.68,5.24-4.49C296.78,154.45,290.78,156.33,289.88,158Z" transform="translate(-7 -6.75)" style="fill:#630"/><path d="M273,210.23c1,.68,3.45.17,4.63-1,2.05-2-.4-5.33-1.89-5.31C273.87,204,271.29,209,273,210.23Z" transform="translate(-7 -6.75)" style="fill:#630"/><path d="M251.59,161.4c-1.48,1.25-.3,3.35,2.29,3.87,4.47.91,11.71-3.11,11.63-4.5C265.41,159.06,254.16,159.22,251.59,161.4Z" transform="translate(-7 -6.75)" style="fill:#963"/><path d="M222,154q2,47,4,94a28.21,28.21,0,0,0,10,5c4.18,1.11,6.23.56,9,2,2.29,1.19,5.13,3.76,7,10l6-102a89.11,89.11,0,0,0-21-15l-6.12,2.45Z" transform="translate(-7 -6.75)" style="fill:#300"/><path d="M234,149V253a18.8,18.8,0,0,1,9,2,19.39,19.39,0,0,1,9,10c23.54-47.2,23.76-91,3-108C250.89,153.63,244.4,150.05,234,149Z" transform="translate(-7 -6.75)" style="fill:#260000"/><path d="M315,17.56,221.58,154.11,232,152a10.43,10.43,0,0,1,7,1c1.77,1,1.75,1.94,4,4,3.58,3.28,5.63,2.84,7,5,.89,1.4,1.45,3.82-.27,8.27L546,65.56a244.68,244.68,0,0,0-93.1-49.9C390.17-1.9,337.39,10.76,315,17.56Z" transform="translate(-7 -6.75)" style="fill:#600"/><path d="M544,165.56,252,265c.9-11.79,1-21.34,1-28,0-7.12-.3-10.19,0-17,.48-11,1.66-14.75,2-21,.37-6.77-.23-16.6-5-29L546,65.56Q545,115.56,544,165.56Z" transform="translate(-7 -6.75)" style="fill:#300"/><path d="M313.08,21.28c26.06-7.35,79.75-18.44,143.41-1.14A271.12,271.12,0,0,1,547,64.39l-9.15,3.17a260.63,260.63,0,0,0-82.39-41C390.42,7.77,335,20,309,27.74Z" transform="translate(-7 -6.75)"/><path d="M551,68.56" transform="translate(-7 -6.75)"/><path d="M315,17.56c25.57-7,78.84-17.73,142-1a270.18,270.18,0,0,1,90,43l-9,3a259.26,259.26,0,0,0-82-40c-64.56-18.26-119.59-6.32-145,1Z" transform="translate(-7 -6.75)" style="fill:#300"/><path d="M547,164.56v-105l-9,3q.5,52.5,1,105Z" transform="translate(-7 -6.75)"/><path d="M234,244" transform="translate(-7 -6.75)" style="fill:#300"/><path d="M253.09,233.05c-1.22-1.5-3.34-.36-3.91,2.22-1,4.45,2.87,11.77,4.27,11.72C255.16,246.92,255.23,235.67,253.09,233.05Z" transform="translate(-7 -6.75)" style="fill:#630"/><path d="M253,241c0-2.57,0-4.08,0-5,0-.65,0-.74,0-1-.1-1.22-.5-1.83-.18-2.64A2,2,0,0,1,253,232c4.11-6.55,14.3-9.07,14.3-9.07,36.48-9,57.7-14.29,59.33-9.35C328.82,220.2,293,236.65,290,238c-21.65,9.84-36.31,11.13-37.13,9.16A27.24,27.24,0,0,1,253,244C253,242.7,253,241.65,253,241Z" transform="translate(-7 -6.75)" style="fill:#963"/><path d="M379,133.46c-1.48,1.26-.3,3.35,2.3,3.88,4.46.9,11.71-3.12,11.62-4.51C392.8,131.12,381.55,131.28,379,133.46Z" transform="translate(-7 -6.75)" style="fill:#963"/><path d="M426.6,143.79c0,3.71,22.82,2.88,41.28-1.45,29.34-6.88,53.51-24,50.7-27.26C513.83,109.52,426.54,136.52,426.6,143.79Z" transform="translate(-7 -6.75)" style="fill:#963"/><path d="M297.49,170c-8.05,4.53-14.47,13.16-10.29,18.18,4.39,5.28,17.94,3.54,26.35,0,8.93-3.8,17.18-11.86,14.9-17-1.23-2.79-5.1-3.82-7.35-4.42A33.61,33.61,0,0,0,297.49,170Z" transform="translate(-7 -6.75)" style="fill:#963"/><path d="M397.26,168.94c-8.06,4.52-14.47,13.15-10.29,18.17,4.38,5.28,17.94,3.55,26.35,0,8.93-3.8,17.18-11.86,14.9-17-1.23-2.79-5.11-3.82-7.36-4.42C414.54,163.94,405.06,164.55,397.26,168.94Z" transform="translate(-7 -6.75)" style="fill:#963"/><path d="M234.88,179c-.51,1,.58,2,2.09,1.92,2.6-.17,5.59-3.68,5.24-4.49C241.78,175.45,235.78,177.33,234.88,179Z" transform="translate(-7 -6.75)" style="fill:#630"/><path d="M247,227.23c1,.68,3.45.17,4.63-1,2-2-.4-5.33-1.89-5.31C247.87,221,245.29,226,247,227.23Z" transform="translate(-7 -6.75)" style="fill:#630"/><path d="M234.59,202.4c-1.48,1.25-.3,3.35,2.29,3.87,4.47.91,11.71-3.11,11.63-4.5C248.41,200.06,237.16,200.22,234.59,202.4Z" transform="translate(-7 -6.75)" style="fill:#630"/></svg>