<svg xmlns="http://www.w3.org/2000/svg" viewBox="0 0 709.09 347.25"><ellipse cx="354.55" cy="187.25" rx="354.05" ry="159.5" style="fill:#fff"/><path d="M361.55,35c194.94,0,353.54,71.33,353.54,159S556.49,353,361.55,353,8,281.67,8,194,166.6,35,361.55,35m0-1C165.74,34,7,105.63,7,194S165.74,354,361.55,354s354.54-71.63,354.54-160S557.36,34,361.55,34Z" transform="translate(-7 -6.75)"/><ellipse cx="350.91" cy="178.76" rx="266.06" ry="128.48" style="fill:#bfbfbf"/><ellipse cx="350.91" cy="185.43" rx="258.79" ry="125.45" style="fill:#ccc"/><path d="M315,17.56l-117,171,348-123a244.68,244.68,0,0,0-93.1-49.9C390.16-1.9,337.38,10.76,315,17.56Z" transform="translate(-7 -6.75)" style="fill:none"/><path d="M544,165.56l-344,118q-1-47.51-2-95l348-123Q545,115.56,544,165.56Z" transform="translate(-7 -6.75)" style="fill:none"/><path d="M313.07,21.28c26.06-7.35,79.75-18.44,143.41-1.14A271.12,271.12,0,0,1,547,64.39l-9.15,3.17a260.63,260.63,0,0,0-82.39-41C390.41,7.77,335,20,309,27.74Z" transform="translate(-7 -6.75)" style="fill:none"/><path d="M242.73,247.89c-4.68-2.76,8.44-16.15,24.48-24.51,25.22-13.14,58.06-14,59.33-9.35C328.58,221.58,251.66,253.15,242.73,247.89Z" transform="translate(-7 -6.75)" style="fill:none"/><path d="M378.89,133.92c-1.48,1.25-.3,3.35,2.3,3.87,4.46.91,11.7-3.11,11.62-4.51C392.71,131.57,381.46,131.74,378.89,133.92Z" transform="translate(-7 -6.75)" style="fill:none"/><path d="M426.5,144.25c0,3.71,22.83,2.88,41.29-1.45,29.33-6.89,53.51-24,50.69-27.26C513.73,110,426.45,137,426.5,144.25Z" transform="translate(-7 -6.75)" style="fill:none"/><path d="M297.4,170.5c-8.06,4.53-14.47,13.16-10.29,18.18,4.38,5.27,17.94,3.54,26.35,0,8.93-3.8,17.18-11.86,14.9-17-1.23-2.78-5.11-3.81-7.36-4.41C314.68,165.5,305.2,166.12,297.4,170.5Z" transform="translate(-7 -6.75)" style="fill:none"/><path d="M397.16,169.39c-8.05,4.53-14.46,13.16-10.29,18.18,4.39,5.28,17.94,3.54,26.36,0,8.93-3.8,17.18-11.86,14.89-17-1.22-2.79-5.1-3.82-7.35-4.42A33.61,33.61,0,0,0,397.16,169.39Z" transform="translate(-7 -6.75)" style="fill:none"/><path d="M551,68.56" transform="translate(-7 -6.75)" style="fill:none"/><path d="M315,17.56c25.57-7,78.84-17.73,142-1a270.18,270.18,0,0,1,90,43l-9,3a259.26,259.26,0,0,0-82-40c-64.56-18.26-119.59-6.32-145,1Z" transform="translate(-7 -6.75)" style="fill:none"/><path d="M547,164.56v-105l-9,3q.5,52.5,1,105Z" transform="translate(-7 -6.75)" style="fill:none"/></svg>