<svg xmlns="http://www.w3.org/2000/svg" viewBox="0 0 709.09 320"><ellipse cx="354.55" cy="160" rx="354.05" ry="159.5" style="fill:#fff"/><path d="M361.55,35c194.94,0,353.54,71.33,353.54,159S556.49,353,361.55,353,8,281.67,8,194,166.6,35,361.55,35m0-1C165.74,34,7,105.63,7,194S165.74,354,361.55,354s354.54-71.63,354.54-160S557.36,34,361.55,34Z" transform="translate(-7 -34)"/><ellipse cx="350.91" cy="151.52" rx="266.06" ry="128.48" style="fill:#bfbfbf"/><ellipse cx="350.91" cy="158.18" rx="258.79" ry="125.45" style="fill:#ccc"/><path d="M276.45,270.8c1,.68,3.45.17,4.63-1,2.05-2-.4-5.33-1.89-5.31C277.37,264.52,274.79,269.61,276.45,270.8Z" transform="translate(-7 -34)" style="fill:#300"/><path d="M298.33,274.81c.68.71,2.4.28,3.2-.85,1.36-1.94-.45-5.32-1.48-5.35C298.78,268.58,297.13,273.58,298.33,274.81Z" transform="translate(-7 -34)" style="fill:#300"/><path d="M242.4,268.7c-.18.47-.84.39-1.23-.18-.68-1-.35-3.09,0-3.2S242.71,267.88,242.4,268.7Z" transform="translate(-7 -34)" style="fill:#300"/><path d="M204.22,240.93c-.4.61-1.74.56-2.5-.12-1.3-1.17-.46-3.83.31-4C203,236.6,204.93,239.88,204.22,240.93Z" transform="translate(-7 -34)" style="fill:#300"/><path d="M218.29,277c-.4.6-1.74.55-2.5-.12-1.3-1.17-.46-3.83.31-4C217,272.62,219,275.9,218.29,277Z" transform="translate(-7 -34)" style="fill:#300"/><path d="M229.39,248.94c1.17-.09,2.75-2.07,2.91-3.73.28-2.85-3.73-3.83-4.85-2.86C226.07,243.53,227.35,249.1,229.39,248.94Z" transform="translate(-7 -34)" style="fill:#300"/><path d="M241.74,228c1,.1,2-1.33,1.91-2.71-.19-2.36-3.75-3.8-4.56-3.15C238.09,222.92,240,227.81,241.74,228Z" transform="translate(-7 -34)" style="fill:#300"/><path d="M289.39,241.74c.17.48-.39.84-1.06.65-1.15-.32-2.25-2.14-2-2.47S289.1,240.91,289.39,241.74Z" transform="translate(-7 -34)" style="fill:#300"/><path d="M257.89,239.43c0,.61-1.06,1.47-1.92,1.59-1.48.2-2-1.86-1.51-2.46S258,238.37,257.89,239.43Z" transform="translate(-7 -34)" style="fill:#300"/><path d="M319.72,254c.08.72-1,1.54-2,1.51-1.75-.06-2.81-2.64-2.33-3.27S319.59,252.71,319.72,254Z" transform="translate(-7 -34)" style="fill:#300"/><path d="M359,207.24c-1.39-.5-3.29,1.21-3.5,3.25-.37,3.52,4.37,6.9,5.72,6.26C362.9,216,361.45,208.12,359,207.24Z" transform="translate(-7 -34)" style="fill:#300"/><path d="M339.31,236.21c.09.5-.52.76-1.15.47-1.08-.49-1.87-2.48-1.61-2.76S339.16,235.34,339.31,236.21Z" transform="translate(-7 -34)" style="fill:#300"/><path d="M323.05,224.85c1-.68,1.31-3.19.6-4.7-1.21-2.6-5.16-1.39-5.64,0C317.43,221.89,321.37,226,323.05,224.85Z" transform="translate(-7 -34)" style="fill:#300"/><path d="M293.24,200.85c.7-1,.1-3.68-1.18-4.91-2.2-2.13-5.68.57-5.62,2.15C286.52,200,292,202.66,293.24,200.85Z" transform="translate(-7 -34)" style="fill:#300"/><path d="M270.46,206c.09-1.05-1.47-2.13-2.93-2-2.52.27-4,4.11-3.25,5C265.15,210.06,270.32,207.86,270.46,206Z" transform="translate(-7 -34)" style="fill:#300"/><path d="M288.25,214.49c.65,0,1.6,1.1,1.75,2,.25,1.58-1.93,2.19-2.59,1.68C286.6,217.55,287.12,214.45,288.25,214.49Z" transform="translate(-7 -34)" style="fill:#300"/><path d="M313.06,183.22c.09-1.05-1.47-2.13-2.93-2-2.52.27-4,4.11-3.25,5C307.75,187.25,312.92,185.05,313.06,183.22Z" transform="translate(-7 -34)" style="fill:#300"/><path d="M272.23,191.86c.17.48-.39.84-1.06.65-1.15-.32-2.25-2.14-2-2.47S271.94,191,272.23,191.86Z" transform="translate(-7 -34)" style="fill:#300"/><path d="M215,218.47c.19,1.16,2.31,2.56,4,2.58,2.87,0,3.48-4.06,2.42-5.1C220.13,214.69,214.7,216.46,215,218.47Z" transform="translate(-7 -34)" style="fill:#300"/><path d="M238.77,177.66c.62.76,2.37.49,3.26-.56,1.53-1.81,0-5.35-1-5.47C239.77,171.49,237.68,176.32,238.77,177.66Z" transform="translate(-7 -34)" style="fill:#300"/><path d="M242.09,197.17a2.47,2.47,0,0,1-2.48-.24c-1.19-.9-.11-2.73.67-2.81C241.24,194,242.89,196.47,242.09,197.17Z" transform="translate(-7 -34)" style="fill:#300"/><path d="M360.78,200.31c1.17-.09,2.76-2.07,2.92-3.73.28-2.85-3.73-3.83-4.86-2.86C357.46,194.91,358.75,200.47,360.78,200.31Z" transform="translate(-7 -34)" style="fill:#300"/><path d="M340.14,211.36c1,.1,2-1.33,1.91-2.71-.2-2.36-3.76-3.79-4.57-3.15C336.49,206.29,338.43,211.18,340.14,211.36Z" transform="translate(-7 -34)" style="fill:#300"/><path d="M355.28,229.8c0,.61-1.06,1.47-1.92,1.59-1.48.2-2-1.86-1.51-2.46S355.35,228.74,355.28,229.8Z" transform="translate(-7 -34)" style="fill:#300"/><path d="M415.44,216.22c1-.67,1.31-3.19.6-4.7-1.21-2.59-5.16-1.39-5.63,0C409.83,213.26,413.77,217.39,415.44,216.22Z" transform="translate(-7 -34)" style="fill:#300"/><path d="M385.65,204.87c.65,0,1.59,1.09,1.74,2,.26,1.57-1.93,2.18-2.58,1.67C384,207.92,384.51,204.82,385.65,204.87Z" transform="translate(-7 -34)" style="fill:#300"/><path d="M377.48,194.54a2.44,2.44,0,0,1-2.48-.24c-1.19-.9-.1-2.73.68-2.8C376.63,191.4,378.28,193.84,377.48,194.54Z" transform="translate(-7 -34)" style="fill:#300"/><path d="M377.44,227.56c1,0,1.9-1.51,1.66-2.87-.4-2.33-4.08-3.45-4.83-2.73C373.35,222.83,375.72,227.53,377.44,227.56Z" transform="translate(-7 -34)" style="fill:#300"/><path d="M310.4,258c.76-.89.48-3.41-.58-4.7-1.82-2.21-5.34-.07-5.45,1.41C304.23,256.54,309.07,259.56,310.4,258Z" transform="translate(-7 -34)" style="fill:#300"/><path d="M313.1,203.62c-.68-.8-2.54-.46-3.47.69-1.58,2,.11,5.7,1.22,5.8C312.2,210.23,314.29,205,313.1,203.62Z" transform="translate(-7 -34)" style="fill:#300"/><path d="M327.67,192a2.59,2.59,0,0,1,2.65.19c1.29.93.18,2.91-.64,3C328.66,195.35,326.83,192.8,327.67,192Z" transform="translate(-7 -34)" style="fill:#300"/><path d="M419,191.18c.07.61-.9,1.32-1.83,1.29-1.59-.05-2.56-2.26-2.12-2.79S418.89,190.1,419,191.18Z" transform="translate(-7 -34)" style="fill:#300"/><path d="M436.88,176c.08.42-.48.65-1.05.4-1-.42-1.71-2.12-1.47-2.36S436.74,175.26,436.88,176Z" transform="translate(-7 -34)" style="fill:#300"/><path d="M369,175.56a1.34,1.34,0,0,0,.47-2.06c-.95-1.14-4.07-.61-4.44,0S367.7,176.08,369,175.56Z" transform="translate(-7 -34)" style="fill:#300"/><path d="M382.51,169.64c.77.05,1.6-.58,1.51-1.19-.16-1-3-1.67-3.61-1.38S381.16,169.56,382.51,169.64Z" transform="translate(-7 -34)" style="fill:#300"/><path d="M422.66,161.8c.08.27-.73,1.19-1.53,1.72-1.37.9-2.25.35-1.89-.17S422.53,161.32,422.66,161.8Z" transform="translate(-7 -34)" style="fill:#300"/><path d="M446.87,134.7a2.35,2.35,0,0,1,2-.15c.54.51-1.43,2-2.15,2.13C445.88,136.87,445.78,135.31,446.87,134.7Z" transform="translate(-7 -34)" style="fill:#300"/><path d="M437.17,135a6.16,6.16,0,0,1-2.4,1.28c-1.3.29-.61-1.06.11-1.52C435.77,134.2,437.8,134.28,437.17,135Z" transform="translate(-7 -34)" style="fill:#300"/><path d="M443.32,148.56c.94-.54,1.52-1.67,1-2.1-.82-.73-4.53.86-5.1,1.57C438.55,148.9,441.68,149.5,443.32,148.56Z" transform="translate(-7 -34)" style="fill:#300"/><path d="M410.51,194.63c.69-.76.43-2.91-.53-4-1.66-1.9-4.88-.06-5,1.2C404.88,193.37,409.29,196,410.51,194.63Z" transform="translate(-7 -34)" style="fill:#300"/><path d="M350.84,166.3a6.44,6.44,0,0,0-4,.3c-1.82.86.13,2.49,1.39,2.53C349.8,169.18,352.21,166.91,350.84,166.3Z" transform="translate(-7 -34)" style="fill:#300"/><path d="M367.53,161.23a7.41,7.41,0,0,1,3.05.09c1.48.4.2,1.27-.74,1.31C368.67,162.69,366.58,161.57,367.53,161.23Z" transform="translate(-7 -34)" style="fill:#300"/><path d="M442.89,167.9c.7-1,.09-3.68-1.19-4.92-2.19-2.12-5.67.58-5.61,2.16C436.16,167.08,441.66,169.71,442.89,167.9Z" transform="translate(-7 -34)" style="fill:#300"/><path d="M420.11,173.08c.09-1.05-1.47-2.13-2.94-2-2.51.27-3.95,4.11-3.24,5C414.8,177.11,420,174.91,420.11,173.08Z" transform="translate(-7 -34)" style="fill:#300"/><path d="M437.9,181.54c.65,0,1.6,1.1,1.74,2,.26,1.57-1.93,2.19-2.58,1.68C436.25,184.59,436.76,181.49,437.9,181.54Z" transform="translate(-7 -34)" style="fill:#300"/><path d="M401.89,160.9c.7-1,.09-3.68-1.19-4.92-2.19-2.12-5.67.58-5.61,2.16C395.16,160.08,400.66,162.71,401.89,160.9Z" transform="translate(-7 -34)" style="fill:#300"/><path d="M345.34,187.44c-.92,0-2.15-1.4-2.26-2.69-.2-2.23,3-3.34,3.84-2.68C348,182.89,346.94,187.39,345.34,187.44Z" transform="translate(-7 -34)" style="fill:#300"/><path d="M396.9,174.54c.65,0,1.6,1.1,1.74,2,.26,1.57-1.93,2.19-2.58,1.68C395.25,177.59,395.76,174.49,396.9,174.54Z" transform="translate(-7 -34)" style="fill:#300"/><path d="M374.24,128.68c-1.48,0-2.72,2.21-2.25,4.21.79,3.44,6.37,5.1,7.43,4.06C380.72,135.66,376.81,128.73,374.24,128.68Z" transform="translate(-7 -34)" style="fill:#300"/><path d="M345.91,157c.69-.95.21-3.44-1-4.64-2-2.06-5.34.36-5.33,1.84C339.64,156,344.71,158.66,345.91,157Z" transform="translate(-7 -34)" style="fill:#300"/><path d="M373.64,121.56c1.08-.47,1.93-2.86,1.55-4.48-.66-2.79-4.77-2.41-5.52-1.13C368.75,117.52,371.77,122.36,373.64,121.56Z" transform="translate(-7 -34)" style="fill:#300"/><path d="M357.7,138.7c1-.22,1.49-1.91.93-3.17-.95-2.18-4.79-2.38-5.35-1.51C352.6,135.1,356,139.09,357.7,138.7Z" transform="translate(-7 -34)" style="fill:#300"/><path d="M378,151.23a2.46,2.46,0,0,1-1.3,2.13c-1.33.67-2.5-1.11-2.23-1.84C374.82,150.62,377.74,150.21,378,151.23Z" transform="translate(-7 -34)" style="fill:#300"/><path d="M430.5,118.86c.69-1,.21-3.44-.95-4.64-2-2.06-5.33.36-5.32,1.85C424.23,117.89,429.3,120.52,430.5,118.86Z" transform="translate(-7 -34)" style="fill:#300"/><path d="M398.64,117.79a2.62,2.62,0,0,1,2.3,1.34c.75,1.4-1.11,2.69-1.9,2.42C398.07,121.22,397.55,118.12,398.64,117.79Z" transform="translate(-7 -34)" style="fill:#300"/><path d="M387.57,110.67a2.47,2.47,0,0,1-2.43.59c-1.41-.47-1-2.55-.27-2.88C385.74,108,388.1,109.75,387.57,110.67Z" transform="translate(-7 -34)" style="fill:#300"/><path d="M398.24,141.92c.94-.31,1.31-2,.65-3.25-1.15-2.08-5-1.94-5.46-1C392.84,138.78,396.61,142.45,398.24,141.92Z" transform="translate(-7 -34)" style="fill:#300"/><path d="M512.27,164.91c.48-1.07,2.81-1.68,4.35-1.08,2.66,1,2.17,5.28.92,5.91C516,170.51,511.43,166.77,512.27,164.91Z" transform="translate(-7 -34)" style="fill:#300"/><path d="M339.63,124.47a2.62,2.62,0,0,1,2.57-.69c1.53.46,1.12,2.7.37,3.06C341.65,127.29,339.09,125.47,339.63,124.47Z" transform="translate(-7 -34)" style="fill:#300"/><path d="M450.75,122.68c.39-.48,1.57-.3,2.2.38,1.09,1.16.22,3.41-.47,3.48C451.64,126.62,450.07,123.53,450.75,122.68Z" transform="translate(-7 -34)" style="fill:#300"/><path d="M373.4,95.47a1.35,1.35,0,0,0-.22-2.1c-1.27-.77-4.05.74-4.2,1.45C368.79,95.68,372.32,96.39,373.4,95.47Z" transform="translate(-7 -34)" style="fill:#300"/><path d="M416.9,151.79c-1.27-.29-3.26.11-3.7.76-.74,1.13,3.38,2.66,4.73,2.57C419.59,155,419.09,152.29,416.9,151.79Z" transform="translate(-7 -34)" style="fill:#300"/><path d="M461.33,163.72c-.52-.58-1.55-.72-1.91-.22-.62.84.92,3.27,1.57,3.53S462.23,164.73,461.33,163.72Z" transform="translate(-7 -34)" style="fill:#300"/><path d="M427.39,140.87c.14-.24,1.36-.32,2.3-.13,1.61.33,1.84,1.35,1.22,1.46C430.14,142.34,427.15,141.3,427.39,140.87Z" transform="translate(-7 -34)" style="fill:#300"/><path d="M459.2,126.25c-1,0-2.37,1.76-2.46,3.22-.17,2.51,3.4,3.49,4.37,2.66C462.29,131.12,461,126.17,459.2,126.25Z" transform="translate(-7 -34)" style="fill:#300"/><path d="M353.2,92.61a6.49,6.49,0,0,0-3.66,1.57c-1.44,1.4.93,2.31,2.13,1.94C353.16,95.67,354.69,92.74,353.2,92.61Z" transform="translate(-7 -34)" style="fill:#300"/><path d="M354.86,114.39c-.86.33-2.49-.62-3-1.81-.9-2,1.73-4.13,2.77-3.78C355.9,109.23,356.36,113.83,354.86,114.39Z" transform="translate(-7 -34)" style="fill:#300"/><path d="M454.62,150.08a2.59,2.59,0,0,1,.19-2.65c.93-1.29,2.91-.18,3,.64C457.94,149.09,455.39,150.92,454.62,150.08Z" transform="translate(-7 -34)" style="fill:#300"/><path d="M315.71,167.05c.17-1,2.1-3.08,3.63-3.8,2.63-1.25,3.23,1.83,2.27,3.13C320.42,168,315.42,168.85,315.71,167.05Z" transform="translate(-7 -34)" style="fill:#300"/><path d="M288.33,182.17a4.06,4.06,0,0,0-1.59,2.2c-.29,1.34,1.56,1.06,2.14.42C289.61,184,289.31,181.74,288.33,182.17Z" transform="translate(-7 -34)" style="fill:#300"/><path d="M313.33,147.47c0-.54-.89-1-1.71-.78-1.42.34-2.14,2.42-1.72,2.8S313.29,148.42,313.33,147.47Z" transform="translate(-7 -34)" style="fill:#300"/><path d="M292,162.49c.06-.83,1.51-2.15,2.74-2.43,2.11-.48,2.86,2.26,2.16,3.15C296,164.31,291.88,164,292,162.49Z" transform="translate(-7 -34)" style="fill:#300"/><path d="M281.41,133c-1.16.19-2.56,2.31-2.58,4,0,2.87,4.06,3.48,5.1,2.42C285.19,138.06,283.42,132.63,281.41,133Z" transform="translate(-7 -34)" style="fill:#300"/><path d="M263.1,145.59c-1,0-1.9,1.51-1.66,2.87.4,2.33,4.08,3.45,4.83,2.73C267.19,150.32,264.82,145.62,263.1,145.59Z" transform="translate(-7 -34)" style="fill:#300"/><path d="M307,110.37c-.2-.46.32-.86,1-.74,1.17.21,2.43,1.94,2.25,2.28S307.33,111.18,307,110.37Z" transform="translate(-7 -34)" style="fill:#300"/><path d="M330.14,115.14c-.76.89-.48,3.42.58,4.7,1.82,2.22,5.35.07,5.46-1.41C336.31,116.62,331.47,113.59,330.14,115.14Z" transform="translate(-7 -34)" style="fill:#300"/><path d="M292.81,162.66c-.46-.22-.32-.87.28-1.21,1-.59,3.11-.07,3.19.31S293.6,163.05,292.81,162.66Z" transform="translate(-7 -34)" style="fill:#300"/><path d="M266.45,166c.08,1.17,2.07,2.76,3.73,2.92,2.85.28,3.83-3.73,2.86-4.86C271.85,162.69,266.29,164,266.45,166Z" transform="translate(-7 -34)" style="fill:#300"/><path d="M304.1,138.67c.26.42-.2.9-.89.87-1.19,0-2.67-1.59-2.54-1.95S303.63,137.92,304.1,138.67Z" transform="translate(-7 -34)" style="fill:#300"/><path d="M316.46,126.69a2.47,2.47,0,0,1-1.18,2.2c-1.29.75-2.56-1-2.33-1.71C313.23,126.27,316.12,125.68,316.46,126.69Z" transform="translate(-7 -34)" style="fill:#300"/><path d="M486.85,179.51c-.18.48-.84.39-1.23-.18-.68-1-.35-3.08,0-3.2S487.17,178.69,486.85,179.51Z" transform="translate(-7 -34)" style="fill:#300"/><path d="M475.68,150.75c-.41.6-1.75.56-2.51-.12-1.3-1.17-.46-3.83.31-4C474.42,146.42,476.38,149.7,475.68,150.75Z" transform="translate(-7 -34)" style="fill:#300"/><path d="M462.75,193.77c-.41.6-1.75.55-2.51-.13-1.3-1.16-.46-3.82.31-4C461.49,189.44,463.45,192.72,462.75,193.77Z" transform="translate(-7 -34)" style="fill:#300"/><path d="M500.84,158.76c1.17-.09,2.75-2.08,2.92-3.73.28-2.85-3.73-3.83-4.86-2.86C497.52,153.35,498.8,158.91,500.84,158.76Z" transform="translate(-7 -34)" style="fill:#300"/><path d="M513.2,137.8c1,.11,2-1.33,1.91-2.7-.2-2.36-3.76-3.8-4.57-3.15C509.54,132.74,511.49,137.62,513.2,137.8Z" transform="translate(-7 -34)" style="fill:#300"/><path d="M529.34,149.25c0,.61-1.06,1.47-1.92,1.59-1.48.2-2-1.86-1.51-2.46S529.41,148.19,529.34,149.25Z" transform="translate(-7 -34)" style="fill:#300"/><path d="M486.49,128.29c.19,1.16,2.31,2.56,4,2.57,2.86,0,3.48-4.05,2.41-5.09C491.58,124.5,486.15,126.28,486.49,128.29Z" transform="translate(-7 -34)" style="fill:#300"/></svg>